<?xml version="1.0" encoding="UTF-8" standalone="no"?><!DOCTYPE svg PUBLIC "-//W3C//DTD SVG 1.1//EN" "http://www.w3.org/Graphics/SVG/1.1/DTD/svg11.dtd"><svg width="100%" height="100%" viewBox="0 0 2048 1080" version="1.1" xmlns="http://www.w3.org/2000/svg" xmlns:xlink="http://www.w3.org/1999/xlink" xml:space="preserve" xmlns:serif="http://www.serif.com/" style="fill-rule:evenodd;clip-rule:evenodd;stroke-linejoin:round;stroke-miterlimit:2;"><rect id="DCI" x="0" y="0" width="2048" height="1080" style="fill:#ffc500;"/><rect id="DCI-Flat" serif:id="DCI Flat" x="25" y="0" width="1998" height="1080" style="fill:#15ff00;"/><rect id="HD" x="64" y="0" width="1920" height="1080" style="fill:#0900ff;"/><rect id="DCI-Scope" serif:id="DCI Scope" x="0" y="111" width="2048" height="858" style="fill:#f00;"/><g transform="matrix(120,0,0,120,1195.3,97.25)"></g><text x="861.666px" y="97.25px" style="font-family:'ArialMT', 'Arial', sans-serif;font-size:120px;fill:#fff;">1.77:1</text><g transform="matrix(120,0,0,120,1200.02,582.363)"></g><text x="866.387px" y="582.363px" style="font-family:'ArialMT', 'Arial', sans-serif;font-size:120px;fill:#fff;">2.39:1</text><g transform="matrix(120,0,0,120,469.375,221.871)"></g><text x="135.742px" y="221.871px" style="font-family:'ArialMT', 'Arial', sans-serif;font-size:120px;fill:#fff;">1.85:1</text><g transform="matrix(120,0,0,120,402.637,338.363)"></g><text x="135.742px" y="338.363px" style="font-family:'ArialMT', 'Arial', sans-serif;font-size:120px;fill:#fff;">1.9:1</text><path d="M65.122,137.892l-6.854,6.07l-8.811,-32.962l31.657,12.728l-6.854,6.07l69.324,78.271l-9.138,8.093l-69.324,-78.27Z" style="fill:#fff;"/><path d="M17.641,140.422l-7.901,4.624l-2.245,-34.046l28.583,18.632l-7.901,4.624l109.804,187.625l-10.536,6.165l-109.804,-187.624Z" style="fill:#fff;"/></svg>